<?xml version="1.0" encoding="UTF-8" standalone="no"?><!DOCTYPE svg PUBLIC "-//W3C//DTD SVG 1.1//EN" "http://www.w3.org/Graphics/SVG/1.1/DTD/svg11.dtd"><svg width="100%" height="100%" viewBox="0 0 800 800" version="1.1" xmlns="http://www.w3.org/2000/svg" xmlns:xlink="http://www.w3.org/1999/xlink" xml:space="preserve" xmlns:serif="http://www.serif.com/" style="fill-rule:evenodd;clip-rule:evenodd;stroke-linejoin:round;stroke-miterlimit:2;"><path d="M807.721,-8.98l0,819.586l-819.048,-0l0,-819.586l819.048,-0Zm-647.721,426.758l0,71.111c0,19.627 15.929,35.555 35.556,35.555l35.555,0l0,35.556c0,19.627 15.929,35.556 35.556,35.556l35.555,-0c19.627,-0 35.556,-15.929 35.556,-35.556l-0,-142.222l142.222,-0l0,142.222c0,19.627 15.929,35.556 35.556,35.556l35.555,-0c19.627,-0 35.556,-15.929 35.556,-35.556l-0,-35.556l35.555,0c19.627,0 35.556,-15.928 35.556,-35.555l-0,-71.111l35.555,-0l0,-35.556l-35.555,0l-0,-71.111c-0,-19.627 -15.929,-35.555 -35.556,-35.555l-35.555,-0l-0,-35.556c-0,-19.627 -15.929,-35.556 -35.556,-35.556l-35.555,0c-19.627,0 -35.556,15.929 -35.556,35.556l0,142.222l-142.222,0l-0,-142.222c-0,-19.627 -15.929,-35.556 -35.556,-35.556l-35.555,0c-19.627,0 -35.556,15.929 -35.556,35.556l0,35.556l-35.555,-0c-19.627,-0 -35.556,15.928 -35.556,35.555l-0,71.111l-35.556,0l0,35.556l35.556,-0Zm71.111,-106.667l0,177.778l-35.555,-0l-0,-177.778l35.555,0Zm35.556,-71.111l35.555,0l0,320l-35.555,0l-0,-320Zm355.555,248.889l-35.555,-0l-0,-177.778l35.555,0l0,177.778Zm0,-0c0,-9.813 -9.813,-0 0,-0Zm-106.666,-248.889c9.813,0 -0,9.813 -0,0Zm-0,0l35.555,0l0,320l-35.555,0l-0,-320Z"/></svg>