<?xml version="1.0" encoding="UTF-8" standalone="no"?><!DOCTYPE svg PUBLIC "-//W3C//DTD SVG 1.1//EN" "http://www.w3.org/Graphics/SVG/1.1/DTD/svg11.dtd"><svg width="100%" height="100%" viewBox="0 0 4267 4267" version="1.1" xmlns="http://www.w3.org/2000/svg" xmlns:xlink="http://www.w3.org/1999/xlink" xml:space="preserve" xmlns:serif="http://www.serif.com/" style="fill-rule:evenodd;clip-rule:evenodd;"><g id="Background"><rect x="-208.333" y="-208.333" width="12500" height="5308.33" style="fill:#262626;"/></g><g id="Icons-for-Universal-Applications" serif:id="Icons for Universal Applications"></g><g id="App-Icon" serif:id="App Icon"><g id="Icon"><rect x="0" y="0" width="4266.67" height="4266.67" style="fill:#fac531;"/><path d="M3128.5,1565.62l189.624,0c52.336,0 94.812,42.476 94.812,94.813l0,948.121c0,52.337 -42.476,94.812 -94.812,94.812l-189.624,0c-52.337,0 -94.812,-42.475 -94.812,-94.812l-0,-948.121c-0,-52.337 42.475,-94.813 94.812,-94.813Z" style="fill:none;fill-rule:nonzero;stroke:#3c3c3c;stroke-width:189.62px;"/><path d="M2749.26,1186.37l189.624,-0c52.337,-0 94.813,42.476 94.813,94.812l-0,1706.62c-0,52.336 -42.476,94.812 -94.813,94.812l-189.624,0c-52.336,0 -94.812,-42.476 -94.812,-94.812l-0,-1706.62c-0,-52.336 42.476,-94.812 94.812,-94.812Z" style="fill:none;fill-rule:nonzero;stroke:#3c3c3c;stroke-width:189.62px;"/><path d="M1421.88,1186.37l189.624,-0c52.336,-0 94.812,42.476 94.812,94.812l0,1706.62c0,52.336 -42.476,94.812 -94.812,94.812l-189.624,0c-52.337,0 -94.812,-42.476 -94.812,-94.812l-0,-1706.62c-0,-52.336 42.475,-94.812 94.812,-94.812Z" style="fill:none;fill-rule:nonzero;stroke:#3c3c3c;stroke-width:189.62px;"/><path d="M1042.64,1565.62l189.624,0c52.337,0 94.813,42.476 94.813,94.813l-0,948.121c-0,52.337 -42.476,94.812 -94.813,94.812l-189.624,0c-52.336,0 -94.812,-42.475 -94.812,-94.812l-0,-948.121c-0,-52.337 42.476,-94.813 94.812,-94.813Z" style="fill:none;fill-rule:nonzero;stroke:#3c3c3c;stroke-width:189.62px;"/><path d="M3412.94,2134.49l284.437,0" style="fill:none;fill-rule:nonzero;stroke:#3c3c3c;stroke-width:189.62px;"/><path d="M1706.32,2134.49l948.122,0" style="fill:none;fill-rule:nonzero;stroke:black;stroke-width:189.62px;"/><path d="M663.387,2134.49l284.437,0" style="fill:none;fill-rule:nonzero;stroke:#3c3c3c;stroke-width:189.62px;"/></g></g></svg>