<?xml version="1.0" encoding="UTF-8" standalone="no"?><!DOCTYPE svg PUBLIC "-//W3C//DTD SVG 1.1//EN" "http://www.w3.org/Graphics/SVG/1.1/DTD/svg11.dtd"><svg width="100%" height="100%" viewBox="0 0 230 220" version="1.1" xmlns="http://www.w3.org/2000/svg" xmlns:xlink="http://www.w3.org/1999/xlink" xml:space="preserve" xmlns:serif="http://www.serif.com/" style="fill-rule:evenodd;clip-rule:evenodd;stroke-linejoin:round;stroke-miterlimit:2;"><rect x="-3.362" y="-3.526" width="238.964" height="228.757" style="fill:#1da1f2;"/><path d="M57.533,50.033c-0,0 1.904,-2.156 2.846,-3.392c3.257,-4.269 6.511,-8.539 9.781,-12.797c0.653,-0.849 1.277,-1.759 2.082,-2.444c2.341,-1.991 4.936,-2.251 7.314,-0.23c2.378,2.021 2.105,4.465 0.333,6.807c-4.173,5.513 -11.683,15.565 -13.705,18.272l12.815,9.207c1.847,-2.408 9.409,-12.264 13.397,-17.454c0.734,-0.956 1.419,-1.995 2.321,-2.768c2.34,-2.003 4.941,-2.227 7.299,-0.169c2.33,2.033 2.105,4.461 0.315,6.815c-3.635,4.779 -13.069,17.025 -15.016,19.551l5.543,3.982c1.778,1.278 2.185,3.76 0.907,5.539l-18.524,25.782c-1.278,1.778 -3.759,2.185 -5.538,0.907l-16.248,-11.674c-4.697,7.306 -6.961,15.049 -7.381,23.302c-1.316,25.881 17.352,48.37 43.856,53.055c30.211,5.34 58.807,-10.392 71.011,-39.187c1.954,-4.61 3.436,-9.419 5.136,-14.136l-1.158,-0.545c-0.81,1.282 -1.636,2.555 -2.428,3.849c-7.604,12.408 -16.641,23.42 -29.793,30.369c-4.509,2.382 -5.001,2.275 -7.419,-2.283c-5.622,-10.594 -5.953,-21.098 1.387,-31.069c3.255,-4.421 6.944,-8.53 10.528,-12.702c13.66,-15.901 15.447,-32.998 5.385,-51.361c-0.581,-1.06 -0.658,-2.395 -0.97,-3.602c1.263,0.025 2.617,-0.244 3.773,0.119c30.955,9.721 52.995,40.36 51.968,72.399c-0.38,11.873 -3.868,22.732 -11.962,31.734c-7.788,8.662 -17.309,13.418 -29.602,12.427c-4.497,-1.411 -7.598,0.336 -10.956,2.7c-25.814,18.178 -60.643,18.543 -85.044,1.104c-26.173,-18.705 -33.779,-51.489 -18.268,-79.645c0.638,-1.159 1.49,-2.388 2.158,-3.554l-14.606,-10.494c-1.779,-1.278 -2.185,-3.76 -0.907,-5.538l18.523,-25.782c1.278,-1.779 3.76,-2.186 5.539,-0.908l5.308,3.814Z" style="fill:#fff;"/></svg>