<?xml version="1.0" encoding="UTF-8" standalone="no"?><!DOCTYPE svg PUBLIC "-//W3C//DTD SVG 1.1//EN" "http://www.w3.org/Graphics/SVG/1.1/DTD/svg11.dtd"><svg width="100%" height="100%" viewBox="0 0 800 800" version="1.1" xmlns="http://www.w3.org/2000/svg" xmlns:xlink="http://www.w3.org/1999/xlink" xml:space="preserve" xmlns:serif="http://www.serif.com/" style="fill-rule:evenodd;clip-rule:evenodd;stroke-linejoin:round;stroke-miterlimit:2;"><g><g><path d="M193.951,336.894c22.214,-2.984 44.429,4.642 60.178,20.391l39.787,39.787l37.632,-37.466l-54.376,-54.21c-8.455,-8.455 -8.455,-22.214 0,-30.669c8.455,-8.455 22.215,-8.455 30.669,-0l54.376,54.376l37.632,-37.467l-39.953,-39.953c-15.749,-15.749 -23.375,-38.129 -20.391,-60.178c6.632,-50.397 -9.449,-103.115 -48.076,-141.907c-39.455,-39.456 -93.5,-55.37 -144.726,-47.745c-8.123,1.161 -11.438,11.273 -5.636,17.076l51.226,51.226c24.37,24.369 24.37,63.825 -0,88.029l-31.498,31.498c-24.37,24.369 -63.825,24.369 -88.029,-0l-51.392,-51.226c-5.802,-5.802 -15.749,-2.487 -17.075,5.636c-7.626,51.226 8.289,105.271 47.744,144.726c38.793,38.627 91.511,54.707 141.908,48.076Z" style="fill:#fac546;fill-rule:nonzero;stroke:#fff;stroke-width:1px;"/><path d="M512.579,404.367l-37.632,37.466l223.471,223.471c8.455,8.455 8.455,22.214 0,30.669c-8.454,8.455 -22.214,8.455 -30.669,0l-223.471,-223.471l-37.632,37.466l230.268,230.268c29.177,29.178 76.425,29.012 105.602,-0.165c29.177,-29.178 29.177,-76.425 0.166,-105.602l-230.103,-230.102Z" style="fill:#fac546;fill-rule:nonzero;stroke:#fff;stroke-width:1px;"/><path d="M598.951,255.165l99.302,-0l99.302,-198.438l-49.568,-49.569l-198.605,99.137l0,99.302l-269.889,269.06l-48.573,-48.407l-195.621,195.62c-40.781,40.781 -40.781,106.762 0,147.544c40.782,40.781 106.763,40.781 147.544,-0l195.621,-195.62l-49.569,-49.569l270.056,-269.06Z" style="fill:#fac546;fill-rule:nonzero;stroke:#fff;stroke-width:1px;"/></g></g></svg>